<svg width="275" height="114" viewBox="0 0 275 114" fill="none" xmlns="http://www.w3.org/2000/svg">
<path d="M129.776 98.512C126.405 98.512 123.141 98 119.984 96.976C116.869 95.9093 114.416 94.544 112.624 92.88L114.992 87.888C116.699 89.424 118.875 90.6827 121.52 91.664C124.208 92.6027 126.96 93.072 129.776 93.072C133.488 93.072 136.261 92.4533 138.096 91.216C139.931 89.936 140.848 88.2507 140.848 86.16C140.848 84.624 140.336 83.3867 139.312 82.448C138.331 81.4667 137.093 80.72 135.6 80.208C134.149 79.696 132.08 79.12 129.392 78.48C126.021 77.6693 123.291 76.8587 121.2 76.048C119.152 75.2373 117.381 74 115.888 72.336C114.437 70.6293 113.712 68.3467 113.712 65.488C113.712 63.0987 114.331 60.944 115.568 59.024C116.848 57.104 118.768 55.568 121.328 54.416C123.888 53.264 127.067 52.688 130.864 52.688C133.509 52.688 136.112 53.0293 138.672 53.712C141.232 54.3947 143.429 55.376 145.264 56.656L143.152 61.776C141.275 60.5813 139.269 59.6853 137.136 59.088C135.003 58.448 132.912 58.128 130.864 58.128C127.237 58.128 124.507 58.7893 122.672 60.112C120.88 61.4347 119.984 63.1413 119.984 65.232C119.984 66.768 120.496 68.0267 121.52 69.008C122.544 69.9467 123.803 70.6933 125.296 71.248C126.832 71.76 128.901 72.3147 131.504 72.912C134.875 73.7227 137.584 74.5333 139.632 75.344C141.68 76.1547 143.429 77.392 144.88 79.056C146.373 80.72 147.12 82.96 147.12 85.776C147.12 88.1227 146.48 90.2773 145.2 92.24C143.92 94.16 141.979 95.696 139.376 96.848C136.773 97.9573 133.573 98.512 129.776 98.512ZM194.102 98.512C189.622 98.512 185.569 97.5307 181.942 95.568C178.358 93.5627 175.542 90.832 173.494 87.376C171.446 83.8773 170.422 79.952 170.422 75.6C170.422 71.248 171.446 67.344 173.494 63.888C175.542 60.3893 178.379 57.6587 182.006 55.696C185.633 53.6907 189.686 52.688 194.166 52.688C197.665 52.688 200.865 53.2853 203.766 54.48C206.667 55.632 209.142 57.36 211.19 59.664L207.03 63.696C203.659 60.1547 199.457 58.384 194.422 58.384C191.094 58.384 188.086 59.1307 185.398 60.624C182.71 62.1173 180.598 64.1867 179.062 66.832C177.569 69.4347 176.822 72.3573 176.822 75.6C176.822 78.8427 177.569 81.7867 179.062 84.432C180.598 87.0347 182.71 89.0827 185.398 90.576C188.086 92.0693 191.094 92.816 194.422 92.816C199.414 92.816 203.617 91.024 207.03 87.44L211.19 91.472C209.142 93.776 206.646 95.5253 203.702 96.72C200.801 97.9147 197.601 98.512 194.102 98.512ZM270.432 92.432V98H237.92V53.2H269.536V58.768H244.32V72.528H266.784V77.968H244.32V92.432H270.432Z" fill="black"/>
<g clip-path="url(#clip0_9_2)">
<path d="M59.4114 33.0573C52.2534 10.9407 62.3677 0 62.3677 0C62.3677 0 29.1636 15.9591 19.3218 58.9722C15.1838 53.0193 11.5731 49.7618 11.9842 50.8277C16.4254 62.3302 6.38835 67.4818 6.52162 79.6079C6.65678 91.7321 27.5861 105.61 27.5861 105.61C27.588 105.604 27.5899 105.598 27.5918 105.592C28.4163 106.202 29.2872 106.776 30.1986 107.317C29.4185 106.39 28.6866 105.442 28.0089 104.474C25.7401 101.236 24.1471 97.8204 24.1103 94.5282C24.0388 88.0325 26.8792 83.5374 28.8546 78.9941C30.5673 75.0589 31.6332 71.0869 29.5729 65.748C29.2484 64.908 31.4324 66.7637 34.3982 70.5058C40.1832 54.8151 45.8815 41.2196 45.8815 41.2196C45.8815 41.2196 46.0283 62.5774 53.2673 76.2637C60.0621 89.11 59.6547 95.7081 59.6547 95.7081C72.0145 83.8928 76.1485 65.1166 76.1485 65.1166C80.6417 69.0789 83.2253 74.1146 84.6793 79.1718C87.7418 89.817 81.4142 100.516 81.2731 101.551C81.2133 101.982 81.1033 102.383 81.0106 102.795C80.5781 104.737 79.7998 106.473 78.7283 108C79.8887 107.263 80.9895 106.45 82.0494 105.591C82.0513 105.596 82.0532 105.602 82.0551 105.608C82.0551 105.608 101.345 91.7306 101.478 79.6046C101.611 67.4804 91.5746 62.3287 96.0155 50.8243C96.3999 49.8281 93.4647 52.6007 89.9274 57.8317C86.4248 47.0283 84.1809 38.2966 72.4758 27.9721C72.4758 27.9721 74.6403 51.4579 62.1995 68.4634C62.2017 68.4684 66.5713 55.176 59.4114 33.0573Z" fill="#010002"/>
</g>
<path d="M113.467 104.849L146.439 46.4781" stroke="black" stroke-width="5"/>
<defs>
<clipPath id="clip0_9_2">
<rect width="108" height="108" fill="white"/>
</clipPath>
</defs>
</svg>
